<svg xmlns="http://www.w3.org/2000/svg" viewBox="0 0 1200 675" width="1200" height="675">
  <style>
    path {
      stroke: #f7f7ff; /* primary-500 */
    }
    .name-text {
      fill: #adadad; /* surface-300 for a subtle, sophisticated look */
      stroke: none;
    }
  </style>

  <!-- Solid background using surface-950 -->
  <rect width="1200" height="675" fill="#111111" />

  <!--
    "viktor.andersson.tech" — Inter 42px, weight 500, letter-spacing -0.5px,
    baseline at (100, 545), outlined to paths so build-time rasterization
    does not depend on fonts installed on the build machine.
  -->
  <path class="name-text" d="M109.6 545L100.94 522.07L105.82 522.07L110.36 535.09Q111.12 537.25 111.65 539.41Q112.18 541.58 112.78 543.71L111.42 543.71Q112 541.58 112.53 539.41Q113.06 537.25 113.8 535.09L118.33 522.07L123.17 522.07L114.52 545ZM126.67 545L126.67 522.07L131.18 522.07L131.18 545ZM128.94 518.57Q127.77 518.57 126.94 517.79Q126.11 517.01 126.11 515.9Q126.11 514.77 126.94 513.99Q127.77 513.21 128.94 513.21Q130.11 513.21 130.95 513.99Q131.79 514.77 131.79 515.9Q131.79 517.01 130.95 517.79Q130.11 518.57 128.94 518.57ZM140.91 537.27L140.91 531.75L141.67 531.75L150.71 522.07L156.13 522.07L145.77 533.17L145.01 533.17ZM136.75 545L136.75 514.44L141.26 514.44L141.26 545ZM151.18 545L143.04 534.17L146.16 530.97L156.76 545ZM169.53 522.07L169.53 525.74L157.11 525.74L157.11 522.07ZM160.45 516.62L164.96 516.62L164.96 538.81Q164.96 540.18 165.55 540.83Q166.13 541.47 167.46 541.47Q167.81 541.47 168.39 541.39Q168.96 541.31 169.37 541.23L170.17 544.84Q169.45 545.08 168.63 545.19Q167.81 545.31 167.01 545.31Q163.89 545.31 162.17 543.7Q160.45 542.09 160.45 539.18ZM182.75 545.47Q179.53 545.47 177.12 544Q174.71 542.52 173.37 539.85Q172.04 537.19 172.04 533.66Q172.04 530.09 173.37 527.41Q174.71 524.74 177.12 523.26Q179.53 521.79 182.75 521.79Q185.99 521.79 188.4 523.26Q190.81 524.74 192.14 527.41Q193.47 530.09 193.47 533.66Q193.47 537.19 192.14 539.85Q190.81 542.52 188.4 544Q185.99 545.47 182.75 545.47ZM182.75 541.66Q184.84 541.66 186.2 540.56Q187.57 539.46 188.23 537.65Q188.9 535.83 188.9 533.66Q188.9 531.46 188.23 529.63Q187.57 527.79 186.2 526.7Q184.84 525.6 182.75 525.6Q180.68 525.6 179.32 526.7Q177.97 527.79 177.3 529.62Q176.64 531.44 176.64 533.66Q176.64 535.83 177.3 537.65Q177.97 539.46 179.32 540.56Q180.68 541.66 182.75 541.66ZM197.98 545L197.98 522.07L202.35 522.07L202.35 525.76L202.6 525.76Q203.23 523.88 204.81 522.81Q206.39 521.74 208.4 521.74Q208.83 521.74 209.39 521.77Q209.94 521.81 210.31 521.87L210.31 526.17Q210.06 526.09 209.37 526.01Q208.67 525.93 207.95 525.93Q206.39 525.93 205.14 526.58Q203.89 527.24 203.19 528.4Q202.5 529.56 202.5 531.08L202.5 545ZM214.44 545.31Q213.17 545.31 212.29 544.43Q211.41 543.54 211.41 542.29Q211.41 541.02 212.29 540.15Q213.17 539.28 214.44 539.28Q215.7 539.28 216.58 540.15Q217.46 541.02 217.46 542.29Q217.46 543.54 216.58 544.43Q215.7 545.31 214.44 545.31ZM229.76 545.51Q227.59 545.51 225.83 544.7Q224.06 543.89 223.04 542.33Q222.01 540.78 222.01 538.52Q222.01 536.57 222.76 535.32Q223.51 534.07 224.79 533.33Q226.07 532.59 227.64 532.22Q229.21 531.85 230.83 531.67Q232.86 531.42 234.13 531.27Q235.4 531.12 236.01 530.76Q236.61 530.4 236.61 529.6L236.61 529.48Q236.61 528.18 236.12 527.3Q235.63 526.42 234.65 525.94Q233.68 525.46 232.22 525.46Q230.73 525.46 229.65 525.92Q228.57 526.38 227.91 527.1Q227.24 527.81 226.91 528.59L222.67 527.49Q223.45 525.44 224.9 524.18Q226.36 522.93 228.25 522.36Q230.13 521.79 232.14 521.79Q233.54 521.79 235.09 522.11Q236.65 522.44 238.03 523.3Q239.4 524.16 240.26 525.72Q241.12 527.28 241.12 529.78L241.12 545L236.76 545L236.76 541.86L236.53 541.86Q236.08 542.74 235.2 543.58Q234.32 544.43 232.97 544.97Q231.63 545.51 229.76 545.51ZM230.77 541.88Q232.61 541.88 233.93 541.17Q235.24 540.45 235.94 539.26Q236.63 538.07 236.63 536.74L236.63 533.8Q236.39 534.05 235.7 534.24Q235.01 534.44 234.13 534.59Q233.25 534.75 232.43 534.85Q231.61 534.95 231.08 535.01Q229.8 535.18 228.75 535.57Q227.69 535.96 227.07 536.67Q226.44 537.39 226.44 538.58Q226.44 539.67 227 540.41Q227.57 541.14 228.53 541.51Q229.5 541.88 230.77 541.88ZM251.21 531.42L251.21 545L246.69 545L246.69 522.07L251 522.07L251.04 527.69L250.57 527.69Q251.57 524.62 253.48 523.2Q255.39 521.79 258.1 521.79Q260.43 521.79 262.18 522.77Q263.92 523.75 264.9 525.67Q265.89 527.59 265.89 530.44L265.89 545L261.38 545L261.38 530.99Q261.38 528.51 260.09 527.12Q258.79 525.72 256.54 525.72Q255.02 525.72 253.81 526.39Q252.6 527.06 251.9 528.33Q251.21 529.6 251.21 531.42ZM279.98 545.45Q277.19 545.45 275.02 544.03Q272.85 542.6 271.61 539.94Q270.38 537.29 270.38 533.6Q270.38 529.87 271.64 527.22Q272.89 524.57 275.06 523.18Q277.23 521.79 279.98 521.79Q282.11 521.79 283.42 522.49Q284.72 523.2 285.46 524.14Q286.2 525.09 286.59 525.8L286.83 525.8L286.83 514.44L291.34 514.44L291.34 545L286.95 545L286.95 541.41L286.59 541.41Q286.2 542.15 285.44 543.09Q284.68 544.04 283.37 544.74Q282.05 545.45 279.98 545.45ZM280.97 541.62Q282.89 541.62 284.22 540.59Q285.54 539.57 286.23 537.75Q286.91 535.94 286.91 533.56Q286.91 531.16 286.24 529.38Q285.56 527.61 284.24 526.61Q282.91 525.62 280.97 525.62Q278.98 525.62 277.65 526.67Q276.33 527.71 275.67 529.51Q275 531.3 275 533.56Q275 535.83 275.68 537.66Q276.35 539.48 277.69 540.55Q279.02 541.62 280.97 541.62ZM306.8 545.47Q303.42 545.47 300.96 544.02Q298.5 542.56 297.18 539.91Q295.85 537.27 295.85 533.7Q295.85 530.17 297.15 527.49Q298.46 524.8 300.84 523.29Q303.21 521.79 306.41 521.79Q308.38 521.79 310.21 522.43Q312.03 523.08 313.49 524.45Q314.95 525.83 315.8 528.01Q316.65 530.19 316.65 533.31L316.65 534.91L298.37 534.91L298.37 531.55L314.33 531.55L312.22 532.65Q312.22 530.54 311.56 528.93Q310.91 527.32 309.62 526.42Q308.34 525.52 306.41 525.52Q304.51 525.52 303.15 526.44Q301.8 527.36 301.09 528.87Q300.38 530.38 300.38 532.16L300.38 534.46Q300.38 536.82 301.19 538.45Q302 540.08 303.46 540.91Q304.92 541.74 306.84 541.74Q308.12 541.74 309.14 541.38Q310.17 541.02 310.92 540.29Q311.66 539.57 312.05 538.5L316.3 539.5Q315.74 541.27 314.44 542.62Q313.14 543.97 311.2 544.72Q309.26 545.47 306.8 545.47ZM321.08 545L321.08 522.07L325.45 522.07L325.45 525.76L325.7 525.76Q326.33 523.88 327.91 522.81Q329.49 521.74 331.5 521.74Q331.93 521.74 332.48 521.77Q333.04 521.81 333.41 521.87L333.41 526.17Q333.16 526.09 332.46 526.01Q331.77 525.93 331.05 525.93Q329.49 525.93 328.24 526.58Q326.99 527.24 326.29 528.4Q325.59 529.56 325.59 531.08L325.59 545ZM345.05 545.47Q342.57 545.47 340.63 544.75Q338.69 544.04 337.45 542.63Q336.21 541.23 335.8 539.2L340.05 538.31Q340.52 540.1 341.81 540.96Q343.1 541.82 345.09 541.82Q347.26 541.82 348.56 540.91Q349.85 540 349.85 538.72Q349.85 537.62 349.06 536.9Q348.27 536.18 346.63 535.83L342.77 534.95Q339.57 534.23 338.02 532.65Q336.46 531.08 336.46 528.61Q336.46 526.56 337.6 525.03Q338.75 523.49 340.74 522.64Q342.73 521.79 345.34 521.79Q347.82 521.79 349.58 522.5Q351.35 523.22 352.44 524.51Q353.54 525.8 354.01 527.51L349.97 528.39Q349.54 527.18 348.47 526.27Q347.41 525.35 345.38 525.35Q343.51 525.35 342.26 526.19Q341.01 527.04 341.01 528.33Q341.01 529.48 341.84 530.18Q342.67 530.89 344.56 531.32L348.25 532.14Q351.43 532.86 352.97 534.4Q354.5 535.94 354.5 538.33Q354.5 540.43 353.3 542.04Q352.1 543.65 349.98 544.56Q347.86 545.47 345.05 545.47ZM367.17 545.47Q364.69 545.47 362.75 544.75Q360.81 544.04 359.57 542.63Q358.33 541.23 357.92 539.2L362.17 538.31Q362.64 540.1 363.93 540.96Q365.22 541.82 367.21 541.82Q369.39 541.82 370.68 540.91Q371.97 540 371.97 538.72Q371.97 537.62 371.18 536.9Q370.39 536.18 368.75 535.83L364.9 534.95Q361.7 534.23 360.14 532.65Q358.58 531.08 358.58 528.61Q358.58 526.56 359.73 525.03Q360.88 523.49 362.87 522.64Q364.85 521.79 367.46 521.79Q369.94 521.79 371.7 522.5Q373.47 523.22 374.57 524.51Q375.66 525.8 376.13 527.51L372.09 528.39Q371.66 527.18 370.6 526.27Q369.53 525.35 367.5 525.35Q365.63 525.35 364.38 526.19Q363.13 527.04 363.13 528.33Q363.13 529.48 363.96 530.18Q364.79 530.89 366.68 531.32L370.37 532.14Q373.55 532.86 375.09 534.4Q376.63 535.94 376.63 538.33Q376.63 540.43 375.43 542.04Q374.23 543.65 372.1 544.56Q369.98 545.47 367.17 545.47ZM390.71 545.47Q387.49 545.47 385.08 544Q382.67 542.52 381.34 539.85Q380.01 537.19 380.01 533.66Q380.01 530.09 381.34 527.41Q382.67 524.74 385.08 523.26Q387.49 521.79 390.71 521.79Q393.95 521.79 396.36 523.26Q398.77 524.74 400.1 527.41Q401.44 530.09 401.44 533.66Q401.44 537.19 400.1 539.85Q398.77 542.52 396.36 544Q393.95 545.47 390.71 545.47ZM390.71 541.66Q392.8 541.66 394.17 540.56Q395.53 539.46 396.2 537.65Q396.86 535.83 396.86 533.66Q396.86 531.46 396.2 529.63Q395.53 527.79 394.17 526.7Q392.8 525.6 390.71 525.6Q388.64 525.6 387.29 526.7Q385.93 527.79 385.27 529.62Q384.6 531.44 384.6 533.66Q384.6 535.83 385.27 537.65Q385.93 539.46 387.29 540.56Q388.64 541.66 390.71 541.66ZM410.46 531.42L410.46 545L405.95 545L405.95 522.07L410.25 522.07L410.29 527.69L409.82 527.69Q410.83 524.62 412.74 523.2Q414.64 521.79 417.35 521.79Q419.69 521.79 421.43 522.77Q423.17 523.75 424.16 525.67Q425.14 527.59 425.14 530.44L425.14 545L420.63 545L420.63 530.99Q420.63 528.51 419.34 527.12Q418.05 525.72 415.79 525.72Q414.27 525.72 413.06 526.39Q411.85 527.06 411.16 528.33Q410.46 529.6 410.46 531.42ZM434.05 545.31Q432.78 545.31 431.89 544.43Q431.01 543.54 431.01 542.29Q431.01 541.02 431.89 540.15Q432.78 539.28 434.05 539.28Q435.3 539.28 436.18 540.15Q437.06 541.02 437.06 542.29Q437.06 543.54 436.18 544.43Q435.3 545.31 434.05 545.31ZM452.75 522.07L452.75 525.74L440.32 525.74L440.32 522.07ZM443.66 516.62L448.18 516.62L448.18 538.81Q448.18 540.18 448.76 540.83Q449.34 541.47 450.68 541.47Q451.03 541.47 451.6 541.39Q452.17 541.31 452.58 541.23L453.38 544.84Q452.67 545.08 451.85 545.19Q451.03 545.31 450.23 545.31Q447.11 545.31 445.39 543.7Q443.66 542.09 443.66 539.18ZM466.21 545.47Q462.82 545.47 460.36 544.02Q457.9 542.56 456.58 539.91Q455.26 537.27 455.26 533.7Q455.26 530.17 456.56 527.49Q457.86 524.8 460.24 523.29Q462.62 521.79 465.82 521.79Q467.79 521.79 469.61 522.43Q471.44 523.08 472.89 524.45Q474.35 525.83 475.2 528.01Q476.05 530.19 476.05 533.31L476.05 534.91L457.78 534.91L457.78 531.55L473.73 531.55L471.62 532.65Q471.62 530.54 470.97 528.93Q470.31 527.32 469.03 526.42Q467.75 525.52 465.82 525.52Q463.91 525.52 462.56 526.44Q461.2 527.36 460.5 528.87Q459.79 530.38 459.79 532.16L459.79 534.46Q459.79 536.82 460.6 538.45Q461.41 540.08 462.86 540.91Q464.32 541.74 466.25 541.74Q467.52 541.74 468.55 541.38Q469.57 541.02 470.32 540.29Q471.07 539.57 471.46 538.5L475.7 539.5Q475.15 541.27 473.85 542.62Q472.54 543.97 470.61 544.72Q468.67 545.47 466.21 545.47ZM490.12 545.47Q486.88 545.47 484.49 544Q482.09 542.52 480.75 539.85Q479.42 537.19 479.42 533.66Q479.42 530.09 480.75 527.41Q482.09 524.74 484.49 523.26Q486.88 521.79 490.12 521.79Q491.91 521.79 493.47 522.25Q495.03 522.71 496.29 523.58Q497.55 524.45 498.42 525.71Q499.29 526.97 499.72 528.55L495.44 529.58Q495.21 528.7 494.74 527.97Q494.27 527.24 493.6 526.71Q492.93 526.17 492.06 525.89Q491.19 525.6 490.15 525.6Q488.07 525.6 486.71 526.7Q485.35 527.79 484.68 529.62Q484.01 531.44 484.01 533.66Q484.01 535.85 484.68 537.67Q485.35 539.48 486.71 540.57Q488.07 541.66 490.15 541.66Q491.21 541.66 492.09 541.36Q492.98 541.06 493.67 540.52Q494.37 539.98 494.84 539.21Q495.31 538.44 495.52 537.51L499.78 538.54Q499.37 540.16 498.49 541.44Q497.61 542.72 496.35 543.63Q495.09 544.53 493.51 545Q491.93 545.47 490.12 545.47ZM508.73 531.42L508.73 545L504.22 545L504.22 514.44L508.69 514.44L508.69 527.69L508.1 527.69Q509.1 524.62 511.01 523.2Q512.92 521.79 515.62 521.79Q517.96 521.79 519.71 522.77Q521.47 523.75 522.44 525.67Q523.42 527.59 523.42 530.44L523.42 545L518.9 545L518.9 530.99Q518.9 528.51 517.61 527.12Q516.32 525.72 514.06 525.72Q512.55 525.72 511.34 526.39Q510.13 527.06 509.43 528.33Q508.73 529.6 508.73 531.42Z" />

  <!--
    Nested SVG containing your logo.
    Width/Height: 200x200 (Less than 1/3 of 675px height limit).
    X/Y: Placed at 900, 375 to provide exactly 100px of padding from the bottom-right corner.
  -->
  <svg x="900" y="375" width="200" height="200" viewBox="0 0 800 800">
    <path d="M30 38 320 688 480 112 770 762M114 440 686 360" fill="none" stroke-width="55" />
  </svg>
</svg>
